<?xml version="1.0" encoding="utf-8"?>
<!-- Generator: Adobe Illustrator 21.0.0, SVG Export Plug-In . SVG Version: 6.00 Build 0)  -->
<svg version="1.1" baseProfile="tiny" id="Layer_1" xmlns="http://www.w3.org/2000/svg" xmlns:xlink="http://www.w3.org/1999/xlink"
	 x="0px" y="0px" viewBox="0 0 1000 1000" xml:space="preserve">
<g>
	<path d="M284.2,867.8c0,82.1-57.3,118.6-145.3,118.6c-59.8,0-101.3-10.4-138.9-25.2l20.3-90.5C51.9,886.1,83,898,130.5,898
		c21.3,0,27.7-5.4,27.7-12.4c0-24.7-158.2-4.4-157.2-131C1.5,680,58.3,639.4,143.4,639.4c47,0,91,8.4,128,19.3l-20.3,90
		c-21.7-9.9-59.8-19.8-98.9-19.8c-16.8,0-27.7,2.5-27.7,12.4C124.6,765.5,284.2,749.7,284.2,867.8z"/>
	<path d="M291.2,645.9h131.5L479,867.8l56.8-221.9h132L567,980H391L291.2,645.9z"/>
	<path d="M1000,794.7v166.6c-34.1,14.8-76.6,25.2-138.9,25.2c-108.3,0-189.8-62.8-189.8-172.5c0-107.8,81.6-174.5,195.7-174.5
		c54.4,0,85,6.9,118.6,15.8l-16.3,91.9c-20.3-5.9-44.5-11.9-77.1-11.9c-65.7,0-90,31.1-90,78.6c0,52.9,38.1,76.6,73.7,76.6
		c4.4,0,8.4-0.5,11.9-1v-94.9H1000z"/>
</g>
<rect y="399" width="1000" height="102"/>
<polygon points="60,520 110,600 160,519 "/>
<polygon points="260,520 310,600 360,519 "/>
<polygon points="460,521 510,600 560,520 "/>
<polygon points="660,521 710,600 760,520 "/>
<polygon points="860,521 910,600 960,520 "/>
<g>
	<path d="M510,20c-20,0-50,0-50,40v320h100V60C561,20,530,20,510,20z"/>
</g>
</svg>
