<svg width="1000" height="1000" viewBox="0 0 1000 1000" xmlns="http://www.w3.org/2000/svg"><path d="M284,868C284,950,227,986,139,986C79,986,38,976,0,961L20,871C52,886,83,898,131,898C152,898,158,893,158,886C158,861,0,881,1,755C2,680,58,639,143,639C190,639,234,648,271,659L251,749C229,739,191,729,152,729C135,729,124,731,124,741C125,766,284,750,284,868zM291,646H423L479,868L536,646H668L567,980H391L291,646zM1000,795V961C966,976,923,987,861,987C753,987,671,924,671,814C671,706,753,640,867,640C921,640,952,646,986,655L969,747C949,741,925,735,892,735C827,735,802,766,802,814C802,867,840,891,876,891C880,891,884,890,888,890V795H1000zM0,399H1000V501H0zM60,520L110,559L160,519M260,520L310,559L360,519M460,521L510,560L560,520M660,521L710,560L760,520M860,521L910,560L960,520M510,20C490,20,460,20,460,60V380H560V60C561,20,530,20,510,20z"/></svg>
